<svg xmlns="http://www.w3.org/2000/svg" width="640" height="800" viewBox="0 0 640 800">
  <defs>
    <linearGradient id="bg" x1="0" x2="1" y1="0" y2="1">
      <stop offset="0%" stop-color="#261717"/>
      <stop offset="100%" stop-color="#5b1f27"/>
    </linearGradient>
  </defs>
  <rect width="640" height="800" fill="url(#bg)"/>
  <circle cx="320" cy="310" r="165" fill="#f5e3d8"/>
  <path d="M165 250 Q320 65 475 250 L430 170 L210 175 Z" fill="#1b2130"/>
  <path d="M240 295 Q275 260 305 285" stroke="#2f3652" stroke-width="12" fill="none" stroke-linecap="round"/>
  <path d="M335 285 Q365 260 400 295" stroke="#2f3652" stroke-width="12" fill="none" stroke-linecap="round"/>
  <ellipse cx="270" cy="330" rx="30" ry="22" fill="#8b79ff"/>
  <ellipse cx="370" cy="330" rx="30" ry="22" fill="#8b79ff"/>
  <circle cx="278" cy="322" r="6" fill="#ffffff"/>
  <circle cx="378" cy="322" r="6" fill="#ffffff"/>
  <path d="M265 425 Q320 385 375 425" stroke="#d95061" stroke-width="12" fill="none" stroke-linecap="round"/>
  <path d="M220 360 L205 385" stroke="#c94e5b" stroke-width="6" stroke-linecap="round"/>
  <path d="M420 360 L435 385" stroke="#c94e5b" stroke-width="6" stroke-linecap="round"/>
</svg>
